<svg width="24" height="24" viewBox="0 0 24 24" fill="none" xmlns="http://www.w3.org/2000/svg">
<g clip-path="url(#clip0_54861_183)">
<path d="M7.04429 3.31565C4.84036 3.31565 3.04541 5.10808 3.04541 7.31453C3.04541 9.52098 4.84036 11.3134 7.04429 11.3134C9.24821 11.3134 11.0432 9.51845 11.0432 7.31453C11.0432 5.1106 9.25074 3.31565 7.04429 3.31565ZM16.9052 12.9165C14.7012 12.9165 12.9063 14.7114 12.9063 16.9154C12.9063 19.1193 14.7012 20.9142 16.9052 20.9142C19.1116 20.9142 20.904 19.1193 20.904 16.9154C20.904 14.7114 19.1116 12.9165 16.9052 12.9165ZM16.9052 19.402C15.5343 19.402 14.421 18.2862 14.421 16.9179C14.421 15.5496 15.5369 14.4337 16.9052 14.4337C18.276 14.4337 19.3893 15.5496 19.3893 16.9179C19.3893 18.2862 18.276 19.402 16.9052 19.402ZM10.2858 13.0023H3.80277C3.3837 13.0023 3.04541 13.3406 3.04541 13.7597V20.2427C3.04541 20.6618 3.3837 21.0001 3.80277 21.0001H10.2858C10.7049 21.0001 11.0432 20.6618 11.0432 20.2427V13.7597C11.0432 13.3406 10.7049 13.0023 10.2858 13.0023ZM9.52844 19.4854H4.56014V14.5171H9.52844V19.4854ZM16.6401 11.629C16.8345 11.629 17.0289 11.5558 17.1753 11.4068L20.7324 7.84973C20.8737 7.70836 20.9545 7.51397 20.9545 7.31453C20.9545 7.11509 20.8737 6.9207 20.7324 6.77932L17.1753 3.22224C17.0333 3.08041 16.8408 3.00075 16.6401 3.00075C16.4394 3.00075 16.2469 3.08041 16.1049 3.22224L12.5478 6.77932C12.406 6.92133 12.3263 7.11382 12.3263 7.31453C12.3263 7.51523 12.406 7.70772 12.5478 7.84973L16.1049 11.4068C16.2538 11.5532 16.4482 11.629 16.6401 11.629ZM16.6401 4.82785L19.1268 7.31453L16.6401 9.8012L14.1534 7.31453L16.6401 4.82785Z"/>
</g>
<defs>
<clipPath id="clip0_54861_183">
<rect width="18" height="18" fill="white" transform="translate(3 3)"/>
</clipPath>
</defs>
</svg>
