<svg width="24" height="24" viewBox="0 0 24 24" fill="none" xmlns="http://www.w3.org/2000/svg">
<path d="M19.0919 12.6994C19.0919 8.44711 15.6447 5 11.3924 5C10.917 5 10.4517 5.0434 10 5.1259C13.5876 5.78125 16.307 8.92262 16.307 12.6994C16.307 16.4762 13.5876 19.6175 10 20.2729C10.4517 20.3554 10.917 20.3988 11.3924 20.3988C15.6448 20.3988 19.0919 16.9517 19.0919 12.6994Z" fill="white"/>
<path d="M15.8118 5C15.3364 5 14.871 5.0434 14.4193 5.1259C18.0069 5.78125 20.7263 8.92262 20.7263 12.6994C20.7263 16.4762 18.0069 19.6175 14.4193 20.2729C14.871 20.3554 15.3364 20.3988 15.8118 20.3988C20.0641 20.3988 23.5113 16.9517 23.5113 12.6994C23.5113 8.44722 20.0641 5 15.8118 5Z" fill="white"/>
<circle cx="7.5" cy="12.5" r="7.5" fill="white"/>
</svg>
