<svg width="24" height="24" viewBox="0 0 24 24"  xmlns="http://www.w3.org/2000/svg">
<g clip-path="url(#clip0_54861_174)">
<path  fill-rule="evenodd" clip-rule="evenodd" d="M6.13886 11.6879C6.02219 11.9695 5.99995 12.1134 5.99995 12.148V18.0752C5.99995 18.4834 6.3307 18.8146 6.74068 18.8146H8.96286V14.3702C8.96286 13.552 9.62613 12.8887 10.4443 12.8887H13.4072C14.2254 12.8887 14.8887 13.552 14.8887 14.3702V18.8146H17.1109C17.5209 18.8146 17.8516 18.4834 17.8516 18.0752V12.148C17.8516 12.1134 17.8294 11.9695 17.7127 11.6879C17.6043 11.4262 17.44 11.1055 17.2255 10.7425C16.7971 10.0175 16.1961 9.17028 15.5233 8.36302C14.8491 7.55393 14.1212 6.80713 13.4444 6.26999C13.1061 6.00148 12.7951 5.79707 12.5224 5.66249C12.2435 5.52488 12.0473 5.48146 11.9258 5.48146C11.8042 5.48146 11.608 5.52488 11.3291 5.66249C11.0565 5.79707 10.7454 6.00148 10.4071 6.26999C9.73032 6.80713 9.00248 7.55393 8.32822 8.36302C7.65551 9.17028 7.05446 10.0175 6.62609 10.7425C6.41156 11.1055 6.24724 11.4262 6.13886 11.6879ZM10.6735 4.334C11.063 4.14176 11.4918 4 11.9258 4C12.3598 4 12.7885 4.14176 13.1781 4.334C13.5737 4.52928 13.9746 4.7994 14.3654 5.10958C15.1469 5.72983 15.9468 6.55708 16.6614 7.41462C17.3776 8.27401 18.0265 9.18599 18.5009 9.9888C18.7377 10.3896 18.938 10.7748 19.0814 11.1209C19.2164 11.4469 19.3331 11.8122 19.3331 12.148V18.0752C19.3331 19.3034 18.3373 20.296 17.1109 20.296H14.8887C14.0705 20.296 13.4072 19.6328 13.4072 18.8146V14.3702H10.4443V18.8146C10.4443 19.6328 9.78105 20.296 8.96286 20.296H6.74068C5.51428 20.296 4.51849 19.3034 4.51849 18.0752V12.148C4.51849 11.8122 4.63514 11.4469 4.77021 11.1209C4.91355 10.7748 5.11381 10.3896 5.35066 9.9888C5.82506 9.18599 6.47398 8.27401 7.19014 7.41462C7.90475 6.55708 8.70465 5.72983 9.48617 5.10958C9.877 4.7994 10.2778 4.52928 10.6735 4.334Z" />
</g>
<defs>
<clipPath id="clip0_54861_174">
<rect width="17.8516" height="16.296" transform="translate(3 4)"/>
</clipPath>
</defs>
</svg>
