<svg width="14" height="16" viewBox="0 0 14 16" fill="none" xmlns="http://www.w3.org/2000/svg">
<path fill-rule="evenodd" clip-rule="evenodd" d="M2.66666 6.66662V4.66662C2.66666 3.51734 3.12321 2.41514 3.93587 1.60249C4.74852 0.789829 5.85073 0.333282 6.99999 0.333282C8.14926 0.333282 9.25146 0.789829 10.0641 1.60249C10.8768 2.41514 11.3333 3.51734 11.3333 4.66662V6.66662H11.6667C12.7713 6.66662 13.6667 7.56202 13.6667 8.66662V13.3333C13.6667 14.4379 12.7713 15.3333 11.6667 15.3333H2.33333C1.22876 15.3333 0.333328 14.4379 0.333328 13.3333V8.66662C0.333328 7.56202 1.22876 6.66662 2.33333 6.66662H2.66666ZM5.35008 3.0167C5.78766 2.57912 6.38113 2.33328 6.99999 2.33328C7.61886 2.33328 8.21233 2.57912 8.64993 3.0167C9.08753 3.45428 9.33333 4.04778 9.33333 4.66662V6.66662H4.66666V4.66662C4.66666 4.04778 4.91249 3.45428 5.35008 3.0167Z" fill="white"/>
</svg>
