<svg width="312" height="419" viewBox="0 0 312 419" fill="none" xmlns="http://www.w3.org/2000/svg">
<path d="M61.3686 221.849C9.10671 252.022 9.10796 300.943 61.3717 331.117C113.635 361.29 198.37 361.29 250.632 331.117C302.893 300.943 302.892 252.022 250.628 221.849C198.365 191.675 113.63 191.675 61.3686 221.849Z" fill="#EEF9FB"/>
<path d="M71.7975 293.835L76.9243 290.873C76.9243 290.873 79.9756 278.194 78.7594 266.786C77.0497 250.747 66.4916 244.712 62.4774 246.095C58.4626 247.478 57.3001 252.146 63.9432 261.698C67.8619 267.335 72.6767 279.074 71.7975 293.835Z" fill="#2BABC8"/>
<g opacity="0.65">
<path d="M71.7975 293.835L76.9243 290.873C76.9243 290.873 79.9756 278.194 78.7594 266.786C77.0497 250.747 66.4916 244.712 62.4774 246.095C58.4626 247.478 57.3001 252.146 63.9432 261.698C67.8619 267.335 72.6767 279.074 71.7975 293.835Z" fill="white"/>
</g>
<path d="M73.9216 287.607C73.9047 287.606 73.8891 287.604 73.8729 287.6C73.6801 287.564 73.5528 287.378 73.5902 287.185C76.4001 272.391 71.2321 255.766 64.8324 248.849C64.6995 248.705 64.7076 248.479 64.8524 248.346C64.9965 248.215 65.2218 248.222 65.3547 248.366C71.8711 255.41 77.1402 272.306 74.2885 287.317C74.2548 287.494 74.0957 287.615 73.9216 287.607Z" fill="white"/>
<path d="M59.8584 301.341C59.0928 301.731 56.092 299.931 55.5241 299.507C54.5519 298.781 53.7857 297.785 53.2983 296.676C52.7317 295.386 52.6413 294.03 52.9083 292.648C53.0469 291.932 53.2846 291.238 53.5211 290.548C53.7539 289.87 53.986 289.192 54.2181 288.514C54.4477 287.845 54.6799 287.153 54.6256 286.448C54.5164 285.028 53.3133 283.976 52.2176 283.065C51.0058 282.059 49.7571 280.748 49.8501 279.049C49.9219 277.739 50.6619 276.555 51.5262 275.567C52.3904 274.579 53.4007 273.719 54.1894 272.67C54.7572 271.915 55.2159 271.017 55.1778 270.073C55.1535 269.486 54.9395 268.924 54.6861 268.394C54.142 267.258 53.4013 266.205 53.0475 264.995C52.6937 263.786 52.8272 262.311 53.7975 261.507C54.5944 260.848 55.7307 260.807 56.7578 260.927C57.7081 261.038 58.6179 261.515 59.4285 262.021C62.0499 263.657 63.4283 266.93 66.2326 268.228C67.314 268.729 68.5189 268.887 69.6546 269.25C70.7903 269.612 71.9335 270.259 72.4127 271.35C73.3574 273.502 71.2776 275.99 71.9035 278.255C72.4576 280.259 74.3352 281.11 75.3212 282.941C75.7523 283.742 75.8154 284.646 75.6943 285.547C75.4884 287.072 75.2076 288.186 74.3864 289.853C73.7075 291.231 71.7968 293.834 71.7968 293.834C71.7968 293.834 59.9758 301.282 59.8584 301.341Z" fill="#2BABC8"/>
<g opacity="0.3">
<path d="M59.8584 301.341C59.0928 301.731 56.092 299.931 55.5241 299.507C54.5519 298.781 53.7857 297.785 53.2983 296.676C52.7317 295.386 52.6413 294.03 52.9083 292.648C53.0469 291.932 53.2846 291.238 53.5211 290.548C53.7539 289.87 53.986 289.192 54.2181 288.514C54.4477 287.845 54.6799 287.153 54.6256 286.448C54.5164 285.028 53.3133 283.976 52.2176 283.065C51.0058 282.059 49.7571 280.748 49.8501 279.049C49.9219 277.739 50.6619 276.555 51.5262 275.567C52.3904 274.579 53.4007 273.719 54.1894 272.67C54.7572 271.915 55.2159 271.017 55.1778 270.073C55.1535 269.486 54.9395 268.924 54.6861 268.394C54.142 267.258 53.4013 266.205 53.0475 264.995C52.6937 263.786 52.8272 262.311 53.7975 261.507C54.5944 260.848 55.7307 260.807 56.7578 260.927C57.7081 261.038 58.6179 261.515 59.4285 262.021C62.0499 263.657 63.4283 266.93 66.2326 268.228C67.314 268.729 68.5189 268.887 69.6546 269.25C70.7903 269.612 71.9335 270.259 72.4127 271.35C73.3574 273.502 71.2776 275.99 71.9035 278.255C72.4576 280.259 74.3352 281.11 75.3212 282.941C75.7523 283.742 75.8154 284.646 75.6943 285.547C75.4884 287.072 75.2076 288.186 74.3864 289.853C73.7075 291.231 71.7968 293.834 71.7968 293.834C71.7968 293.834 59.9758 301.282 59.8584 301.341Z" fill="white"/>
</g>
<path d="M66.3156 297.417C66.3112 297.417 66.3062 297.416 66.3062 297.416C66.1165 297.399 65.9805 297.235 65.9973 297.05C67.2247 283.744 61.6842 268.706 57.3312 264.198C57.2027 264.065 57.2058 263.852 57.3393 263.723C57.4735 263.594 57.6856 263.598 57.8148 263.731C62.2552 268.329 67.9111 283.618 66.6675 297.111C66.6506 297.292 66.4946 297.426 66.3156 297.417Z" fill="white"/>
<path d="M64.994 281.01C64.9615 281.008 64.9278 281.002 64.8954 280.99C60.6784 279.45 55.3501 278.947 55.2977 278.942C55.1123 278.925 54.9769 278.761 54.9931 278.577C55.0106 278.392 55.1579 278.253 55.3588 278.272C55.4131 278.278 60.825 278.788 65.1257 280.359C65.3004 280.423 65.3902 280.615 65.326 280.79C65.2748 280.932 65.1375 281.017 64.994 281.01Z" fill="white"/>
<path d="M231.671 292.565L239.486 297.077C239.382 294.288 239.139 290.139 239.524 287.346C241.884 270.264 248.539 264.632 251.704 256.317C255.036 247.561 250.972 244.744 245.693 246.318C240.985 247.722 234.173 254.689 232.027 267.437C230.601 275.918 230.854 285.128 231.671 292.565Z" fill="#2BABC8"/>
<path opacity="0.65" d="M231.671 292.565L239.486 297.077C239.382 294.288 239.139 290.139 239.524 287.346C241.884 270.264 248.539 264.632 251.704 256.317C255.036 247.561 250.972 244.744 245.693 246.318C240.985 247.722 234.173 254.689 232.027 267.437C230.601 275.918 230.854 285.128 231.671 292.565Z" fill="white"/>
<path d="M235.814 294.957L236.596 295.408C233.801 275.492 240.61 258.22 247.33 251.086C247.46 250.95 247.453 250.733 247.318 250.603C247.176 250.474 246.962 250.48 246.832 250.615C240.115 257.753 233.309 275.142 235.814 294.957Z" fill="white"/>
<path d="M237.29 295.809L241.689 298.348H241.692C244.03 291.464 246.431 288.706 249.413 284.178C252.13 280.057 255.288 277.505 256.966 274.608C258.453 272.043 259.57 268.821 257.361 266.871C253.846 263.766 249.258 267.051 246.103 270.601C243.377 273.672 237.893 281.837 237.29 295.809Z" fill="#2BABC8"/>
<path opacity="0.3" d="M237.29 295.809L241.689 298.348H241.692C244.03 291.464 246.431 288.706 249.413 284.178C252.13 280.057 255.288 277.505 256.966 274.608C258.453 272.043 259.57 268.821 257.361 266.871C253.846 263.766 249.258 267.051 246.103 270.601C243.377 273.672 237.893 281.837 237.29 295.809Z" fill="white"/>
<path d="M239.096 296.85L239.736 297.222C241.582 286.334 248.978 273.735 253.575 270.759C253.736 270.655 253.783 270.437 253.676 270.273C253.572 270.109 253.357 270.062 253.193 270.169C248.435 273.255 241.055 285.794 239.096 296.85Z" fill="white"/>
<path d="M209.283 329.353C230.052 329.353 246.889 319.632 246.889 307.641C246.889 295.65 230.052 285.929 209.283 285.929C188.513 285.929 171.676 295.65 171.676 307.641C171.676 319.632 188.513 329.353 209.283 329.353Z" fill="#E0E0E0"/>
<path d="M108.49 120.647C107.916 120.386 107.232 120.362 106.739 120.323C106.172 120.279 105.993 120.166 105.883 120.043C104.504 118.07 102.226 117.995 100.865 118.56C100.531 117.202 98.889 116.024 97.08 116.421C97.1418 114.657 94.8898 112.761 92.8655 112.331C90.9249 111.918 89.2326 112.091 88.125 113.367C86.9394 111.052 82.2925 110.4 79.7777 111.624C78.3313 112.329 77.1045 113.051 76.5055 114.377C76.1099 115.252 75.9682 115.834 75.9607 117.011C74.9804 116.148 73.0186 115.914 71.7094 116.42C70.2986 116.966 70.1912 118.03 70.1213 119.112C68.7379 118.763 67.8119 118.989 67.5523 119.065C66.6631 119.329 66.1508 120.027 66.2725 120.591C65.5693 120.552 63.8932 121.12 64.086 121.863C64.3025 122.697 66.2163 122.613 66.9308 122.587C67.5224 122.565 68.2893 122.406 68.932 122.272C69.1273 122.369 69.6465 122.472 69.9728 122.47C71.1915 122.461 71.7075 121.939 71.9029 121.485C72.4975 122.738 74.6141 123.692 76.1105 124.075C78.9279 124.796 82.9152 124.356 84.6499 122.25C84.8321 122.629 85.1367 122.982 85.4892 123.273C86.1781 123.84 87.1072 124.237 88.0963 124.33C89.2532 124.437 92.3588 124.586 93.2337 122.746C93.8533 123.969 96.6176 124.527 98.7199 124.228C99.5061 124.117 100.388 123.844 101.074 123.518C101.626 123.255 101.94 122.999 102.427 122.706C102.841 122.458 103.028 122.461 103.581 122.627C105.024 123.062 106.698 123.24 108.171 122.622C109.347 122.13 109.592 121.146 108.49 120.647Z" fill="#F0F0F0"/>
<path d="M65.1475 151.572C64.6046 151.326 63.9581 151.303 63.4914 151.266C62.9554 151.224 62.7856 151.118 62.6821 151.002C61.3779 149.136 59.2232 149.064 57.9365 149.6C57.6214 148.316 56.0683 147.202 54.3579 147.577C54.4166 145.909 52.2862 144.116 50.373 143.709C48.5379 143.318 46.9379 143.482 45.8908 144.689C44.7695 142.5 40.3753 141.883 37.9979 143.041C36.6307 143.707 35.4707 144.39 34.9035 145.644C34.5291 146.471 34.3955 147.021 34.3887 148.135C33.462 147.318 31.6062 147.097 30.3688 147.575C29.0341 148.091 28.933 149.097 28.8669 150.121C27.559 149.791 26.6829 150.004 26.4376 150.077C25.5971 150.326 25.1123 150.986 25.2277 151.52C24.5625 151.482 22.9782 152.02 23.1598 152.723C23.3644 153.511 25.174 153.432 25.8498 153.407C26.4096 153.386 27.134 153.236 27.7418 153.11C27.9265 153.201 28.417 153.299 28.7259 153.296C29.8784 153.288 30.3664 152.795 30.5511 152.365C31.1133 153.55 33.1151 154.452 34.5297 154.814C37.1942 155.496 40.9644 155.08 42.6049 153.089C42.7771 153.447 43.0648 153.781 43.3986 154.056C44.05 154.592 44.9286 154.967 45.864 155.055C46.9579 155.157 49.8944 155.297 50.7219 153.558C51.3078 154.715 53.9217 155.241 55.9098 154.959C56.6536 154.854 57.4879 154.595 58.1356 154.287C58.6579 154.039 58.9549 153.796 59.4154 153.52C59.8073 153.284 59.9839 153.288 60.5062 153.445C61.8709 153.856 63.4539 154.024 64.8467 153.44C65.9574 152.975 66.1896 152.045 65.1475 151.572Z" fill="#F5F5F5"/>
<path d="M268.09 86.4184C267.547 86.1726 266.901 86.1495 266.434 86.1127C265.898 86.0702 265.729 85.9641 265.625 85.8481C264.321 83.9823 262.166 83.9106 260.879 84.446C260.564 83.1618 259.011 82.0479 257.301 82.4229C257.359 80.755 255.23 78.9622 253.316 78.5548C251.481 78.1641 249.881 78.3283 248.833 79.5351C247.712 77.3461 243.318 76.7289 240.94 77.8871C239.573 78.5529 238.412 79.2368 237.846 80.4898C237.471 81.3172 237.338 81.8676 237.331 82.9808C236.404 82.164 234.548 81.9431 233.311 82.4217C231.977 82.9377 231.875 83.9436 231.81 84.967C230.502 84.6369 229.626 84.8503 229.381 84.9233C228.54 85.1723 228.055 85.8325 228.171 86.366C227.505 86.3286 225.921 86.8665 226.103 87.5691C226.307 88.3572 228.117 88.2779 228.793 88.253C229.352 88.2324 230.077 88.0826 230.685 87.956C230.869 88.0471 231.36 88.145 231.669 88.1432C232.821 88.135 233.309 87.6415 233.494 87.2121C234.056 88.3965 236.058 89.2988 237.473 89.6607C240.137 90.3428 243.907 89.9272 245.548 87.936C245.72 88.2942 246.008 88.628 246.341 88.9026C246.993 89.4386 247.872 89.8142 248.807 89.9016C249.901 90.0039 252.837 90.1443 253.665 88.4046C254.251 89.5615 256.865 90.0882 258.853 89.8061C259.596 89.7007 260.431 89.4423 261.078 89.1341C261.601 88.8857 261.897 88.643 262.358 88.3666C262.75 88.1313 262.927 88.1344 263.449 88.2917C264.814 88.7029 266.397 88.8714 267.79 88.2873C268.901 87.8212 269.132 86.8908 268.09 86.4184Z" fill="#F5F5F5"/>
<path d="M277.312 224.662C276.876 224.662 276.436 224.581 276.003 224.422C275.52 224.246 275.09 223.987 274.727 223.655C274.364 223.323 274.082 222.941 273.888 222.522C273.694 222.103 273.585 221.645 273.563 221.162C273.542 220.678 273.621 220.186 273.8 219.701C273.972 219.231 274.228 218.808 274.559 218.446C274.892 218.083 275.273 217.801 275.692 217.607C276.111 217.414 276.572 217.302 277.063 217.276C277.56 217.25 278.057 217.327 278.542 217.506C279.028 217.684 279.455 217.946 279.809 218.285C280.158 218.62 280.437 219.001 280.637 219.419C280.838 219.842 280.953 220.305 280.98 220.797C281.006 221.293 280.932 221.783 280.758 222.255C280.579 222.742 280.317 223.168 279.978 223.522C279.641 223.874 279.255 224.149 278.83 224.339C278.406 224.53 277.946 224.637 277.464 224.658C277.414 224.661 277.363 224.662 277.312 224.662ZM274.474 219.948C274.33 220.344 274.265 220.741 274.282 221.131C274.298 221.519 274.385 221.886 274.54 222.22C274.693 222.553 274.919 222.857 275.212 223.125C275.506 223.394 275.855 223.604 276.25 223.748C276.644 223.893 277.039 223.957 277.433 223.941C277.823 223.924 278.195 223.838 278.537 223.685C278.876 223.532 279.187 223.31 279.46 223.026C279.73 222.744 279.94 222.401 280.084 222.008C280.223 221.628 280.283 221.234 280.262 220.836C280.241 220.437 280.149 220.066 279.989 219.729C279.827 219.39 279.599 219.079 279.312 218.805C279.026 218.531 278.693 218.327 278.295 218.18C277.901 218.036 277.503 217.97 277.101 217.994C276.701 218.016 276.328 218.105 275.993 218.26C275.662 218.413 275.357 218.639 275.09 218.932C274.823 219.224 274.615 219.566 274.474 219.948ZM281.37 216.659L277.272 215.155L278.24 211.331C278.409 210.588 278.754 209.982 279.261 209.541C279.739 209.124 280.302 208.783 280.936 208.527C281.542 208.281 282.209 208.064 282.918 207.881C283.594 207.708 284.254 207.487 284.882 207.224C285.495 206.968 286.06 206.627 286.559 206.211C287.039 205.812 287.414 205.251 287.674 204.541C287.837 204.095 287.901 203.663 287.864 203.257C287.827 202.848 287.706 202.458 287.505 202.099C287.302 201.738 287.011 201.406 286.642 201.113C286.267 200.817 285.823 200.573 285.321 200.389C284.573 200.114 283.904 199.961 283.332 199.935C282.746 199.908 282.233 199.931 281.803 200.001C281.354 200.074 280.97 200.149 280.649 200.223C280.251 200.317 279.922 200.313 279.644 200.211C279.023 199.983 278.649 199.532 278.562 198.905L277.939 196L278.224 195.889C278.854 195.644 279.534 195.433 280.249 195.26C280.963 195.089 281.717 194.982 282.488 194.943C283.258 194.903 284.076 194.946 284.913 195.069C285.755 195.193 286.638 195.423 287.54 195.754C288.775 196.208 289.853 196.8 290.747 197.516C291.646 198.238 292.356 199.066 292.856 199.977C293.358 200.893 293.649 201.895 293.719 202.956C293.789 204.017 293.616 205.122 293.204 206.241C292.804 207.331 292.291 208.231 291.678 208.917C291.071 209.596 290.413 210.151 289.721 210.568C289.035 210.98 288.32 211.302 287.597 211.524L285.622 212.129C285.021 212.312 284.482 212.514 284.017 212.729C283.602 212.921 283.305 213.185 283.109 213.538L281.37 216.659ZM278.127 214.704L281.041 215.773L282.48 213.188C282.749 212.705 283.164 212.331 283.713 212.077C284.208 211.848 284.779 211.634 285.411 211.441L287.384 210.837C288.052 210.632 288.714 210.334 289.349 209.952C289.98 209.573 290.582 209.063 291.141 208.437C291.694 207.82 292.16 206.997 292.529 205.993C292.906 204.968 293.064 203.963 293.002 203.003C292.937 202.047 292.677 201.145 292.225 200.322C291.771 199.493 291.122 198.738 290.296 198.076C289.464 197.409 288.453 196.854 287.293 196.428C286.437 196.113 285.6 195.895 284.809 195.779C284.018 195.663 283.25 195.622 282.525 195.659C281.797 195.696 281.088 195.797 280.417 195.958C279.841 196.097 279.289 196.262 278.771 196.451L279.269 198.78C279.324 199.167 279.521 199.399 279.892 199.535C280.031 199.586 280.236 199.582 280.486 199.522C280.82 199.445 281.221 199.367 281.688 199.291C282.168 199.213 282.731 199.188 283.366 199.216C284.01 199.245 284.752 199.412 285.569 199.713C286.143 199.923 286.653 200.204 287.089 200.548C287.532 200.899 287.883 201.302 288.132 201.746C288.383 202.194 288.535 202.68 288.581 203.191C288.628 203.703 288.55 204.241 288.349 204.788C288.045 205.617 287.598 206.282 287.02 206.762C286.465 207.224 285.839 207.602 285.159 207.886C284.5 208.162 283.806 208.394 283.098 208.576C282.419 208.75 281.783 208.957 281.207 209.191C280.647 209.418 280.152 209.717 279.735 210.081C279.345 210.421 279.077 210.898 278.94 211.498L278.127 214.704Z" fill="#E0E0E0"/>
<path d="M44.6203 215.616C44.4768 215.616 44.3321 215.614 44.1873 215.61C43.2394 215.583 42.2473 215.452 41.2364 215.222C40.2186 214.99 39.1603 214.623 38.0908 214.132C36.6256 213.46 35.3652 212.632 34.3443 211.674C33.3166 210.707 32.531 209.63 32.0099 208.473C31.4858 207.31 31.228 206.062 31.2436 204.764C31.2592 203.468 31.5762 202.139 32.1846 200.813C32.7774 199.521 33.4894 198.473 34.3012 197.698C35.1075 196.926 35.963 196.312 36.8447 195.872C37.722 195.435 38.6249 195.111 39.5285 194.91L42.0133 194.357C42.7714 194.189 43.4572 193.992 44.0544 193.771C44.5991 193.569 45.0029 193.262 45.288 192.833L47.6848 189.225L52.4403 191.408L50.9059 195.941C50.6307 196.823 50.1596 197.52 49.5088 198.002C48.8891 198.462 48.1721 198.823 47.3784 199.074C46.6103 199.318 45.7729 199.519 44.8905 199.673C44.0388 199.822 43.202 200.031 42.4051 200.294C41.6183 200.553 40.8844 200.921 40.2236 201.388C39.5853 201.839 39.0611 202.505 38.6655 203.366C38.4159 203.91 38.293 204.446 38.2998 204.96C38.3061 205.481 38.4196 205.982 38.638 206.452C38.8577 206.926 39.1884 207.371 39.6215 207.773C40.0595 208.179 40.5899 208.527 41.1958 208.805C42.0994 209.219 42.9156 209.473 43.6201 209.561C44.3389 209.652 44.9798 209.672 45.5226 209.628C46.0724 209.582 46.5585 209.527 46.9672 209.466C47.4489 209.393 47.8383 209.426 48.1534 209.571C48.8648 209.897 49.2641 210.464 49.3084 211.208L49.7858 214.773L49.4925 214.861C48.6976 215.102 47.8427 215.295 46.9553 215.437C46.2022 215.555 45.4197 215.616 44.6203 215.616ZM47.9413 190.134L45.8846 193.23C45.5176 193.783 44.986 194.192 44.3027 194.445C43.6756 194.677 42.9574 194.884 42.1668 195.058L39.6839 195.611C38.8371 195.799 37.9891 196.104 37.1642 196.515C36.3467 196.923 35.5505 197.495 34.7961 198.217C34.051 198.929 33.3915 199.903 32.8367 201.112C32.2708 202.346 31.9756 203.578 31.9606 204.773C31.9469 205.966 32.1834 207.111 32.6639 208.179C33.1456 209.249 33.8763 210.249 34.8354 211.15C35.7988 212.056 36.9951 212.84 38.3891 213.48C39.4143 213.951 40.4252 214.301 41.3943 214.523C42.3596 214.743 43.3056 214.868 44.206 214.893C45.1121 214.917 45.9969 214.861 46.8387 214.728C47.5868 214.609 48.3082 214.451 48.989 214.26L48.5909 211.278C48.559 210.769 48.325 210.443 47.8502 210.225C47.6686 210.141 47.4077 210.124 47.072 210.177C46.6458 210.241 46.1441 210.297 45.5782 210.344C44.9823 210.394 44.2934 210.37 43.5271 210.275C42.7502 210.179 41.8635 209.904 40.8919 209.459C40.2161 209.148 39.6233 208.759 39.1285 208.301C38.6262 207.834 38.2406 207.313 37.9816 206.755C37.7208 206.193 37.5841 205.592 37.5779 204.97C37.5685 204.349 37.7139 203.709 38.0078 203.067C38.4571 202.089 39.0611 201.327 39.8049 200.802C40.5238 200.294 41.3219 199.893 42.1761 199.613C43.006 199.339 43.8772 199.121 44.7632 198.967C45.6137 198.818 46.4193 198.625 47.1575 198.391C47.8751 198.164 48.5216 197.839 49.0769 197.427C49.603 197.037 49.9867 196.463 50.2189 195.72L51.548 191.792L47.9413 190.134ZM53.1317 188.695C53.0899 188.695 53.0468 188.694 53.0044 188.693C52.4054 188.678 51.8132 188.537 51.2422 188.276C50.6725 188.014 50.1839 187.657 49.7889 187.216C49.3983 186.779 49.0988 186.293 48.8966 185.769C48.6938 185.241 48.5983 184.672 48.6139 184.074C48.6289 183.475 48.7656 182.89 49.0189 182.337C49.281 181.767 49.6373 181.278 50.0785 180.883C50.5171 180.491 51.0089 180.196 51.5399 180.006C52.0715 179.817 52.6387 179.729 53.2191 179.751C53.8069 179.772 54.3922 179.914 54.9594 180.174C55.5266 180.435 56.0202 180.787 56.427 181.222C56.832 181.656 57.1365 182.142 57.3312 182.666C57.5259 183.19 57.6139 183.752 57.5933 184.337C57.5733 184.924 57.4304 185.509 57.1696 186.077C56.9163 186.63 56.5674 187.115 56.1338 187.52C55.6988 187.926 55.2121 188.23 54.6898 188.424C54.2044 188.604 53.6808 188.695 53.1317 188.695ZM53.0537 180.466C52.6113 180.466 52.1838 180.539 51.782 180.682C51.3389 180.841 50.9271 181.089 50.5577 181.419C50.1902 181.747 49.8925 182.157 49.6722 182.637C49.4588 183.101 49.3446 183.59 49.3315 184.093C49.3184 184.595 49.3977 185.072 49.5668 185.511C49.7371 185.953 49.9924 186.366 50.3243 186.738C50.6525 187.105 51.0625 187.403 51.5417 187.622C52.0229 187.843 52.5214 187.962 53.0225 187.974C53.5317 187.986 54.004 187.912 54.4396 187.75C54.8727 187.589 55.2783 187.335 55.6439 186.995C56.009 186.654 56.3029 186.245 56.5163 185.778C56.7372 185.297 56.8582 184.804 56.8751 184.313C56.8919 183.821 56.8189 183.352 56.6573 182.917C56.4957 182.483 56.2411 182.077 55.901 181.713C55.5591 181.347 55.141 181.049 54.6593 180.828C54.1788 180.607 53.6858 180.488 53.1935 180.47C53.1473 180.468 53.1005 180.466 53.0537 180.466Z" fill="#E0E0E0"/>
<path d="M282.888 142.451C282.6 142.451 282.316 142.425 282.036 142.372C281.437 142.258 280.892 142.041 280.414 141.726C279.936 141.412 279.523 141 279.186 140.505C278.847 140.008 278.61 139.439 278.482 138.811H278.481C278.356 138.2 278.35 137.589 278.464 136.992C278.577 136.395 278.794 135.849 279.109 135.371C279.423 134.895 279.836 134.476 280.339 134.128C280.842 133.778 281.417 133.534 282.046 133.405C282.675 133.276 283.295 133.274 283.888 133.4C284.475 133.525 285.018 133.745 285.502 134.055C285.989 134.369 286.413 134.782 286.761 135.284C287.111 135.788 287.353 136.353 287.478 136.964C287.607 137.594 287.609 138.214 287.484 138.807C287.358 139.397 287.13 139.939 286.807 140.416C286.483 140.894 286.068 141.307 285.575 141.644C285.077 141.983 284.507 142.219 283.881 142.348C283.548 142.417 283.216 142.451 282.888 142.451ZM279.186 138.667C279.295 139.201 279.495 139.683 279.779 140.101C280.064 140.519 280.41 140.864 280.808 141.126C281.206 141.389 281.664 141.57 282.169 141.666C282.675 141.76 283.203 141.754 283.738 141.644C284.27 141.535 284.752 141.335 285.171 141.05C285.59 140.764 285.94 140.416 286.213 140.013C286.484 139.613 286.675 139.156 286.781 138.657C286.886 138.162 286.884 137.641 286.775 137.108C286.669 136.593 286.466 136.118 286.171 135.694C285.876 135.27 285.52 134.922 285.114 134.66C284.704 134.397 284.241 134.209 283.74 134.103C283.242 133.997 282.721 134 282.191 134.109C281.657 134.218 281.172 134.423 280.749 134.718C280.321 135.014 279.972 135.368 279.709 135.766C279.446 136.164 279.265 136.622 279.169 137.126C279.074 137.631 279.079 138.149 279.186 138.667ZM279.16 131.521L277.682 126.846C277.375 125.949 277.343 125.09 277.588 124.297C277.822 123.54 278.196 122.807 278.699 122.119C279.188 121.45 279.758 120.777 280.394 120.115C281.01 119.473 281.577 118.792 282.075 118.091C282.569 117.4 282.953 116.649 283.219 115.859C283.473 115.097 283.504 114.226 283.308 113.272C283.184 112.67 282.96 112.15 282.641 111.727C282.319 111.299 281.921 110.952 281.453 110.695C280.983 110.435 280.438 110.268 279.834 110.198C279.223 110.127 278.572 110.161 277.902 110.3C276.903 110.505 276.073 110.789 275.434 111.146C274.783 111.509 274.239 111.879 273.817 112.246C273.387 112.62 273.017 112.96 272.719 113.257C272.367 113.609 272.026 113.816 271.678 113.887C270.893 114.047 270.224 113.822 269.737 113.235L267.185 110.58L267.369 110.336C267.883 109.652 268.472 108.974 269.12 108.321C269.767 107.667 270.501 107.054 271.301 106.5C272.103 105.947 273.004 105.452 273.978 105.031C274.958 104.607 276.056 104.269 277.24 104.025C278.86 103.693 280.404 103.613 281.83 103.787C283.265 103.962 284.568 104.377 285.7 105.018C286.838 105.661 287.809 106.537 288.582 107.619C289.355 108.702 289.898 109.994 290.199 111.458C290.493 112.883 290.539 114.181 290.34 115.317C290.141 116.442 289.805 117.469 289.342 118.368C288.881 119.263 288.33 120.078 287.707 120.791L285.985 122.756C285.459 123.354 285.01 123.934 284.65 124.48C284.321 124.979 284.173 125.48 284.198 126.011L284.403 130.443L279.16 131.521ZM279.203 109.445C279.445 109.445 279.683 109.458 279.917 109.485C280.614 109.566 281.247 109.762 281.8 110.067C282.357 110.374 282.832 110.788 283.215 111.296C283.598 111.804 283.866 112.421 284.012 113.129C284.233 114.208 284.195 115.204 283.899 116.088C283.612 116.946 283.195 117.761 282.66 118.51C282.141 119.238 281.552 119.946 280.911 120.614C280.298 121.251 279.748 121.901 279.279 122.544C278.822 123.168 278.484 123.829 278.273 124.51C278.075 125.153 278.105 125.864 278.364 126.621L279.65 130.686L283.658 129.864L283.481 126.045C283.449 125.367 283.642 124.708 284.052 124.086C284.43 123.512 284.899 122.906 285.446 122.283L287.167 120.319C287.753 119.649 288.27 118.882 288.704 118.04C289.133 117.205 289.445 116.246 289.633 115.192C289.817 114.147 289.771 112.94 289.497 111.604C289.216 110.238 288.712 109.038 287.998 108.038C287.286 107.041 286.394 106.236 285.348 105.645C284.297 105.05 283.084 104.665 281.743 104.501C280.397 104.337 278.929 104.413 277.386 104.73C276.249 104.964 275.199 105.288 274.264 105.691C273.333 106.094 272.474 106.566 271.711 107.092C270.946 107.621 270.247 108.205 269.631 108.828C269.083 109.381 268.579 109.952 268.13 110.527L270.274 112.759C270.612 113.164 271.006 113.294 271.535 113.184C271.738 113.143 271.965 112.997 272.212 112.749C272.523 112.441 272.904 112.09 273.346 111.705C273.805 111.305 274.39 110.907 275.084 110.519C275.787 110.127 276.687 109.817 277.757 109.596C278.25 109.495 278.734 109.445 279.203 109.445Z" fill="#E0E0E0"/>
<path d="M45.2506 120.369C44.4818 120.369 43.6844 120.309 42.8713 120.189C41.7999 120.032 40.6742 119.738 39.5267 119.316C37.9561 118.74 36.5839 117.986 35.4469 117.075C34.305 116.158 33.404 115.107 32.7712 113.952C32.1341 112.792 31.7666 111.521 31.6767 110.175C31.5881 108.833 31.8084 107.431 32.3307 106.008C32.8386 104.624 33.4907 103.482 34.2676 102.612C35.0395 101.749 35.8756 101.044 36.7524 100.516C37.6241 99.9935 38.5326 99.5848 39.4524 99.3022L41.9833 98.5271C42.7559 98.2919 43.4522 98.0323 44.0532 97.754C44.6041 97.4988 44.9991 97.1456 45.2612 96.6751L47.4458 92.7514L52.5289 94.6184L51.3103 99.4288C51.0969 100.364 50.6669 101.121 50.0342 101.672C49.4302 102.199 48.7182 102.63 47.917 102.954C47.1407 103.268 46.2902 103.545 45.3885 103.776C44.518 103.999 43.6675 104.284 42.8601 104.622C42.0651 104.954 41.3331 105.396 40.6848 105.935C40.0577 106.456 39.5666 107.191 39.2259 108.118C39.0106 108.704 38.927 109.272 38.9763 109.807C39.025 110.348 39.1847 110.861 39.4499 111.331C39.7176 111.807 40.0976 112.242 40.5806 112.625C41.0686 113.011 41.6476 113.328 42.3003 113.569C43.2707 113.925 44.138 114.123 44.8787 114.156C45.6325 114.191 46.2989 114.162 46.8593 114.07C47.4321 113.977 47.9313 113.881 48.3438 113.785C48.8355 113.669 49.2373 113.673 49.5749 113.797C50.3331 114.076 50.7899 114.626 50.8959 115.389L51.6778 119.034L51.3926 119.145C50.5883 119.458 49.7191 119.728 48.8105 119.947C47.9026 120.166 46.9441 120.302 45.9607 120.352C45.7261 120.363 45.489 120.369 45.2506 120.369ZM47.7747 93.6369L45.889 97.0239C45.5557 97.6236 45.0397 98.0885 44.3552 98.4055C43.7243 98.6969 42.9967 98.9689 42.193 99.2142L39.6633 99.9886C38.7991 100.254 37.9442 100.639 37.1224 101.132C36.3074 101.622 35.5268 102.281 34.8036 103.091C34.0873 103.892 33.482 104.957 33.0046 106.255C32.5179 107.583 32.312 108.886 32.3937 110.127C32.4767 111.367 32.8155 112.538 33.4015 113.605C33.9887 114.678 34.8286 115.657 35.8969 116.513C36.9726 117.376 38.2768 118.091 39.7744 118.641C40.877 119.046 41.954 119.328 42.9768 119.479C43.9964 119.628 44.9879 119.681 45.9245 119.634C46.863 119.586 47.7778 119.456 48.6421 119.248C49.4121 119.062 50.1521 118.839 50.8454 118.584L50.1883 115.514C50.1134 114.984 49.8408 114.661 49.3266 114.472C49.1275 114.399 48.853 114.403 48.5073 114.485C48.078 114.585 47.5625 114.683 46.9747 114.779C46.3657 114.878 45.6493 114.91 44.8456 114.873C44.0313 114.836 43.0916 114.624 42.0526 114.243C41.3281 113.976 40.6829 113.621 40.1344 113.187C39.5778 112.747 39.1367 112.241 38.8234 111.684C38.5083 111.124 38.3186 110.515 38.2612 109.872C38.2019 109.231 38.2999 108.557 38.5526 107.871C38.937 106.823 39.5004 105.986 40.2262 105.383C40.93 104.798 41.7225 104.319 42.5836 103.96C43.4223 103.608 44.3065 103.312 45.2113 103.08C46.0818 102.857 46.9011 102.591 47.6474 102.287C48.3744 101.993 49.0183 101.604 49.5625 101.13C50.0779 100.681 50.4311 100.052 50.612 99.2603L51.6734 95.0689L47.7747 93.6369ZM52.675 91.7418C52.1327 91.7418 51.5892 91.6432 51.0563 91.4472C50.4454 91.2232 49.9113 90.8938 49.4676 90.4701C49.0289 90.0507 48.6789 89.5721 48.428 89.0467C48.1765 88.5176 48.0318 87.9366 47.9987 87.3182C47.9656 86.6967 48.0599 86.0821 48.277 85.4899C48.501 84.879 48.8299 84.3449 49.2536 83.9018C49.6748 83.4613 50.159 83.1168 50.6925 82.8772C51.2254 82.6382 51.8026 82.5041 52.4073 82.4772C53.0238 82.4504 53.6341 82.5509 54.2406 82.7736C54.849 82.997 55.3875 83.3209 55.8411 83.7371C56.2954 84.1527 56.6492 84.63 56.8932 85.1561C57.1359 85.6802 57.2726 86.2537 57.2994 86.8608C57.3256 87.4686 57.2258 88.0851 57.0018 88.6935C56.7846 89.2838 56.4645 89.8142 56.0489 90.2679C55.6333 90.7222 55.156 91.076 54.63 91.3193C54.1052 91.5621 53.5267 91.7012 52.9096 91.7343C52.8322 91.7393 52.7536 91.7418 52.675 91.7418ZM52.5995 83.1923C52.5458 83.1923 52.4928 83.193 52.4391 83.1955C51.9262 83.2179 51.4376 83.3315 50.9877 83.533C50.539 83.7346 50.1309 84.0254 49.774 84.3992C49.4189 84.7704 49.1419 85.221 48.9522 85.7383C48.7687 86.2381 48.6895 86.7566 48.7176 87.2802C48.745 87.8037 48.8661 88.2942 49.077 88.7366C49.2904 89.1821 49.5887 89.5908 49.9649 89.9503C50.3368 90.3059 50.7867 90.5824 51.304 90.7721C51.8232 90.9624 52.3511 91.0429 52.8734 91.0173C53.3982 90.9892 53.8886 90.8719 54.3298 90.6679C54.7685 90.4644 55.1691 90.1668 55.5198 89.7837C55.8717 89.3993 56.1444 88.9494 56.3291 88.447C56.5194 87.9279 56.6043 87.405 56.5825 86.8933C56.56 86.381 56.4452 85.898 56.2417 85.4587C56.0383 85.0194 55.7407 84.6188 55.3569 84.2675C54.9719 83.9149 54.5133 83.6391 53.9935 83.4482C53.5292 83.2785 53.0612 83.1923 52.5995 83.1923Z" fill="#E0E0E0"/>
<path d="M239.607 289.475C238.686 286.078 237.437 282.899 235.866 279.943C234.291 276.984 232.446 274.281 230.335 271.833C228.218 269.382 225.938 267.45 223.479 266.032C221.022 264.613 218.716 263.896 216.565 263.884C214.415 263.871 212.571 264.445 211.034 265.607C209.497 266.768 195.498 274.306 193.962 275.467C192.425 276.629 191.216 278.389 190.334 280.744C189.451 283.103 189.01 285.872 189.01 289.044C189.01 292.325 189.451 295.623 190.334 298.948C191.216 302.275 192.425 305.405 193.962 308.341C195.498 311.277 197.342 313.954 199.493 316.372C201.644 318.79 203.949 320.713 206.408 322.132C208.867 323.551 211.145 324.276 213.262 324.321C215.374 324.364 217.218 323.816 218.794 322.678C220.364 321.536 234.29 313.955 235.866 312.817C237.436 311.675 238.686 309.965 239.607 307.679C240.529 305.396 240.99 302.619 240.99 299.338C240.991 296.165 240.53 292.875 239.607 289.475Z" fill="#FBCA89"/>
<path opacity="0.4" d="M239.607 289.475C238.686 286.078 237.437 282.899 235.866 279.943C234.291 276.984 232.446 274.281 230.335 271.833C228.218 269.382 225.938 267.45 223.479 266.032C221.022 264.613 218.716 263.896 216.565 263.884C214.415 263.871 212.571 264.445 211.034 265.607C209.497 266.768 195.498 274.306 193.962 275.467C192.425 276.629 191.216 278.389 190.334 280.744C189.451 283.103 189.01 285.872 189.01 289.044C189.01 292.325 189.451 295.623 190.334 298.948C191.216 302.275 192.425 305.405 193.962 308.341C195.498 311.277 197.342 313.954 199.493 316.372C201.644 318.79 203.949 320.713 206.408 322.132C208.867 323.551 211.145 324.276 213.262 324.321C215.374 324.364 217.218 323.816 218.794 322.678C220.364 321.536 234.29 313.955 235.866 312.817C237.436 311.675 238.686 309.965 239.607 307.679C240.529 305.396 240.99 302.619 240.99 299.338C240.991 296.165 240.53 292.875 239.607 289.475Z" fill="white"/>
<path d="M269.911 168.176C267.76 160.484 264.727 153.228 260.806 146.408C256.89 139.591 252.181 133.363 246.695 127.737C241.203 122.108 235.116 117.365 228.43 113.505C223.513 110.665 218.944 108.619 214.721 107.357C210.498 106.095 206.578 105.447 202.969 105.409C199.361 105.378 196 105.841 192.888 106.809C189.78 107.781 186.915 109.044 184.304 110.609L167.232 120.47L174.721 140.617C175.95 144.4 177.947 147.086 180.713 148.683C181.868 149.35 183.171 149.464 184.628 149.024C186.091 148.59 187.875 148.185 189.987 147.818C192.099 147.448 194.67 147.503 197.709 147.974C200.742 148.447 204.45 149.946 208.826 152.473C211.82 154.202 214.605 156.371 217.177 158.984C219.749 161.599 221.96 164.487 223.804 167.65C225.648 170.813 227.085 174.15 228.121 177.67C229.162 181.189 229.678 184.787 229.678 188.475C229.678 194.211 228.776 198.63 226.972 201.739C226.265 202.956 225.469 204.04 224.626 205.053C223.109 205.749 221.66 206.51 220.313 207.364C218.633 208.424 205.733 215.644 203.241 217.225C200.743 218.802 198.745 220.98 197.248 223.75C195.753 226.521 195.232 230.447 195.693 235.524L197.651 261.694L217.124 272.937L234.197 263.077L236.843 242.175C237.061 240.457 237.554 239.014 238.269 237.793C238.463 237.709 238.644 237.631 238.838 237.545C239.775 237.137 240.688 236.662 241.577 236.119C243.555 234.911 257.412 226.98 258.139 226.561C260.321 225.306 262.363 223.653 264.267 221.602C266.8 218.868 268.912 215.144 270.601 210.436C272.291 205.729 273.134 199.481 273.134 191.695C273.133 183.71 272.057 175.868 269.911 168.176Z" fill="#FBCA89"/>
<path opacity="0.4" d="M269.911 168.176C267.76 160.484 264.727 153.228 260.806 146.408C256.89 139.591 252.181 133.363 246.695 127.737C241.203 122.108 235.116 117.365 228.43 113.505C223.513 110.665 218.944 108.619 214.721 107.357C210.498 106.095 206.578 105.447 202.969 105.409C199.361 105.378 196 105.841 192.888 106.809C189.78 107.781 186.915 109.044 184.304 110.609L167.232 120.47L174.721 140.617C175.95 144.4 177.947 147.086 180.713 148.683C181.868 149.35 183.171 149.464 184.628 149.024C186.091 148.59 187.875 148.185 189.987 147.818C192.099 147.448 194.67 147.503 197.709 147.974C200.742 148.447 204.45 149.946 208.826 152.473C211.82 154.202 214.605 156.371 217.177 158.984C219.749 161.599 221.96 164.487 223.804 167.65C225.648 170.813 227.085 174.15 228.121 177.67C229.162 181.189 229.678 184.787 229.678 188.475C229.678 194.211 228.776 198.63 226.972 201.739C226.265 202.956 225.469 204.04 224.626 205.053C223.109 205.749 221.66 206.51 220.313 207.364C218.633 208.424 205.733 215.644 203.241 217.225C200.743 218.802 198.745 220.98 197.248 223.75C195.753 226.521 195.232 230.447 195.693 235.524L197.651 261.694L217.124 272.937L234.197 263.077L236.843 242.175C237.061 240.457 237.554 239.014 238.269 237.793C238.463 237.709 238.644 237.631 238.838 237.545C239.775 237.137 240.688 236.662 241.577 236.119C243.555 234.911 257.412 226.98 258.139 226.561C260.321 225.306 262.363 223.653 264.267 221.602C266.8 218.868 268.912 215.144 270.601 210.436C272.291 205.729 273.134 199.481 273.134 191.695C273.133 183.71 272.057 175.868 269.911 168.176Z" fill="white"/>
<path d="M218.794 289.803C217.218 286.844 215.374 284.141 213.262 281.693C211.145 279.241 208.867 277.31 206.408 275.891C203.949 274.472 201.644 273.756 199.493 273.743C197.342 273.73 195.498 274.304 193.962 275.466C192.425 276.628 191.216 278.388 190.334 280.743C189.451 283.102 189.01 285.871 189.01 289.043C189.01 292.324 189.451 295.623 190.334 298.947C191.216 302.275 192.425 305.405 193.962 308.34C195.498 311.276 197.342 313.953 199.493 316.371C201.644 318.789 203.949 320.712 206.408 322.131C208.867 323.55 211.145 324.275 213.262 324.321C215.374 324.364 217.218 323.816 218.794 322.677C220.364 321.535 221.613 319.824 222.536 317.538C223.458 315.255 223.918 312.478 223.918 309.197C223.918 306.025 223.457 302.736 222.536 299.336C221.614 295.938 220.365 292.759 218.794 289.803Z" fill="#FAFAFA"/>
<path d="M199.425 275.477H199.483C201.319 275.488 203.358 276.133 205.541 277.393C207.813 278.704 209.969 280.532 211.95 282.825C213.968 285.164 215.756 287.786 217.264 290.617C218.768 293.448 219.979 296.534 220.863 299.789C221.74 303.026 222.185 306.192 222.185 309.197C222.185 312.236 221.763 314.824 220.929 316.89C220.136 318.855 219.075 320.331 217.78 321.272C216.552 322.159 215.15 322.59 213.492 322.59C213.428 322.59 213.363 322.59 213.3 322.588C211.486 322.55 209.459 321.891 207.276 320.631C204.994 319.314 202.812 317.493 200.79 315.22C198.742 312.918 196.962 310.333 195.499 307.537C194.03 304.731 192.857 301.691 192.011 298.502C191.171 295.338 190.746 292.156 190.746 289.044C190.746 286.093 191.154 283.505 191.959 281.352C192.721 279.318 193.748 277.803 195.01 276.85C196.229 275.926 197.674 275.477 199.425 275.477ZM199.425 273.743C197.303 273.743 195.482 274.317 193.962 275.466C192.426 276.628 191.217 278.388 190.334 280.744C189.452 283.103 189.011 285.871 189.011 289.044C189.011 292.325 189.452 295.623 190.334 298.947C191.217 302.275 192.426 305.405 193.962 308.341C195.499 311.277 197.343 313.954 199.494 316.372C201.645 318.79 203.95 320.713 206.409 322.132C208.867 323.551 211.146 324.276 213.263 324.322C213.339 324.324 213.416 324.324 213.492 324.324C215.509 324.324 217.276 323.776 218.794 322.678C220.365 321.536 221.614 319.825 222.537 317.539C223.458 315.256 223.919 312.479 223.919 309.197C223.919 306.025 223.458 302.736 222.537 299.336C221.614 295.938 220.366 292.759 218.794 289.803C217.218 286.844 215.374 284.141 213.263 281.693C211.146 279.242 208.867 277.311 206.409 275.892C203.95 274.473 201.645 273.757 199.494 273.743C199.47 273.743 199.447 273.743 199.425 273.743Z" fill="#FBCA89"/>
<path d="M252.84 178.037C250.688 170.345 247.655 163.089 243.734 156.269C239.819 149.451 235.11 143.224 229.623 137.597C224.131 131.968 218.044 127.225 211.358 123.364C206.441 120.526 201.871 118.479 197.649 117.217C193.426 115.956 189.505 115.308 185.898 115.27C182.288 115.239 178.928 115.7 175.816 116.669C172.708 117.64 169.843 118.904 167.232 120.469L174.721 140.617C175.95 144.399 177.947 147.086 180.713 148.683C181.868 149.349 183.171 149.464 184.628 149.023C186.091 148.589 187.875 148.185 189.987 147.818C192.099 147.448 194.67 147.502 197.709 147.974C200.742 148.446 204.45 149.946 208.826 152.473C211.82 154.201 214.605 156.371 217.177 158.983C219.749 161.598 221.96 164.487 223.804 167.65C225.648 170.812 227.085 174.15 228.121 177.669C229.162 181.188 229.678 184.787 229.678 188.474C229.678 194.211 228.776 198.629 226.972 201.738C225.168 204.843 222.918 207.285 220.231 209.058C217.544 210.837 214.66 212.245 211.592 213.289C208.519 214.334 205.734 215.643 203.241 217.224C200.743 218.801 198.745 220.979 197.248 223.75C195.753 226.52 195.232 230.446 195.693 235.523L197.651 261.693L217.124 272.937L219.772 252.035C220.157 248.984 221.327 246.712 223.285 245.232C225.242 243.751 227.567 242.43 230.258 241.272C232.944 240.109 235.805 238.866 238.838 237.545C241.871 236.223 244.656 234.196 247.194 231.462C249.727 228.727 251.839 225.003 253.529 220.296C255.218 215.588 256.062 209.341 256.062 201.556C256.061 193.57 254.985 185.729 252.84 178.037Z" fill="#FAFAFA"/>
<path d="M185.556 117.003L185.88 117.004C189.318 117.04 193.111 117.671 197.154 118.879C201.234 120.098 205.722 122.113 210.492 124.867C217.008 128.629 223.028 133.32 228.383 138.809C233.749 144.312 238.409 150.477 242.232 157.134C246.059 163.791 249.066 170.981 251.17 178.504C253.265 186.015 254.327 193.771 254.327 201.557C254.327 209.111 253.51 215.219 251.897 219.711C250.293 224.179 248.283 227.736 245.924 230.284C243.562 232.828 240.944 234.737 238.145 235.957C235.114 237.278 232.254 238.52 229.572 239.681C226.767 240.889 224.3 242.291 222.239 243.85C219.906 245.614 218.497 248.296 218.051 251.819L215.732 270.132L199.311 260.651L197.419 235.367C196.991 230.662 197.447 227.031 198.773 224.575C200.122 222.079 201.936 220.099 204.169 218.689C206.526 217.195 209.211 215.931 212.151 214.932C215.363 213.839 218.404 212.349 221.187 210.506C224.09 208.59 226.541 205.933 228.472 202.609C230.45 199.2 231.412 194.577 231.412 188.475C231.412 184.629 230.864 180.827 229.784 177.181C228.714 173.543 227.206 170.043 225.302 166.777C223.397 163.51 221.079 160.479 218.413 157.768C215.745 155.058 212.811 152.772 209.693 150.972C205.152 148.351 201.211 146.766 197.976 146.262C196.184 145.983 194.518 145.842 193.024 145.842C191.827 145.842 190.705 145.933 189.69 146.111C187.543 146.484 185.674 146.905 184.127 147.365C183.714 147.49 183.323 147.553 182.965 147.553C182.466 147.553 182.012 147.432 181.58 147.183C179.175 145.794 177.471 143.472 176.37 140.082L176.359 140.048L176.346 140.014L169.37 121.245C171.51 120.083 173.845 119.103 176.332 118.325C179.152 117.448 182.255 117.003 185.556 117.003ZM185.556 115.269C182.076 115.269 178.83 115.732 175.816 116.67C172.708 117.641 169.843 118.905 167.232 120.47L174.721 140.617C175.95 144.4 177.947 147.086 180.713 148.683C181.409 149.085 182.159 149.286 182.965 149.286C183.495 149.286 184.049 149.199 184.628 149.024C186.091 148.59 187.875 148.185 189.987 147.818C190.911 147.656 191.923 147.576 193.024 147.576C194.438 147.576 196 147.709 197.709 147.974C200.742 148.447 204.45 149.946 208.826 152.473C211.82 154.202 214.605 156.372 217.177 158.984C219.749 161.599 221.96 164.487 223.804 167.65C225.648 170.813 227.085 174.151 228.121 177.67C229.162 181.189 229.678 184.787 229.678 188.475C229.678 194.212 228.776 198.63 226.972 201.739C225.168 204.844 222.918 207.286 220.231 209.058C217.544 210.838 214.66 212.246 211.592 213.29C208.518 214.334 205.733 215.644 203.24 217.225C200.742 218.802 198.745 220.98 197.248 223.751C195.752 226.521 195.23 230.447 195.692 235.524L197.65 261.694L217.123 272.937L219.771 252.036C220.157 248.984 221.327 246.712 223.284 245.232C225.242 243.752 227.567 242.431 230.257 241.272C232.944 240.11 235.805 238.867 238.837 237.545C241.871 236.224 244.655 234.197 247.194 231.463C249.726 228.728 251.838 225.004 253.528 220.297C255.218 215.589 256.061 209.342 256.061 201.557C256.061 193.57 254.986 185.73 252.84 178.037C250.688 170.345 247.655 163.089 243.734 156.269C239.819 149.451 235.11 143.224 229.623 137.597C224.131 131.968 218.044 127.225 211.358 123.365C206.441 120.526 201.871 118.479 197.649 117.217C193.426 115.956 189.505 115.308 185.898 115.27C185.784 115.269 185.67 115.269 185.556 115.269Z" fill="#FBCA89"/>
<path d="M113.856 335.226C108.044 338.162 101.078 340.553 92.8245 342.275C76.2781 345.721 58.075 344.732 42.8648 339.208C38.7761 337.732 34.901 335.935 31.3312 333.808C25.9312 330.593 21.2237 326.628 17.5222 321.92C11.2818 313.965 7.91769 303.882 8.90672 291.656C12.3367 249.577 30.4241 229.247 30.4241 229.247C58.0421 187.045 98.1667 194.927 111.547 217.112C123.476 236.898 134.556 276.124 136.873 286.726C141.037 305.803 135.53 324.271 113.856 335.226Z" fill="#F5F0EB"/>
<path d="M105.683 333.417C102.472 335.19 99.0738 336.763 95.5265 338.104C90.6084 339.967 85.4153 341.398 80.0798 342.322C77.1887 342.821 74.2606 343.179 71.3093 343.38L53.0087 287.793L89.8708 287.651L97.1662 287.621L105.683 333.417Z" fill="#38332F"/>
<path d="M89.8779 287.621L89.8709 287.651L80.0799 342.321C77.1888 342.82 74.2606 343.178 71.3094 343.379C59.7151 344.153 47.7927 342.529 36.7804 337.917L41.3111 287.62H89.8779V287.621Z" fill="#38332F"/>
<path d="M80.0799 342.321L83.3814 326.086L93.2316 319.855" stroke="#68485C" stroke-width="0.287539" stroke-miterlimit="10"/>
<path d="M73.1082 232.084C72.1178 232.26 71.4836 233.239 71.7304 234.216L81.9569 274.714C83.1501 279.44 87.5865 282.733 92.5156 282.553C98.5225 282.332 102.94 277.105 102.07 271.244L94.2747 230.071C94.0981 229.138 93.204 228.521 92.2688 228.687L73.1082 232.084Z" fill="#D18370"/>
<path d="M65.6674 225.235L72.5273 245.176L101.83 234.542L90.8048 214.692C88.0211 209.372 82.3886 206.808 75.2006 207.011L76.191 207.584C68.0758 209.088 63.1316 217.382 65.6674 225.235Z" fill="#2BABC8"/>
<path d="M86.7939 262.243C104.28 251.531 128.73 239.316 128.73 239.316L137.878 247.946L99.8502 280.22C94.4735 284.806 86.2419 283.293 82.8461 277.096C79.9902 271.883 81.7252 265.349 86.7939 262.243Z" fill="#D18370"/>
<path d="M125.373 242.394L129.382 230.828L130.074 230.541L142.412 228.617L146.27 235.945L147.29 242.464L133.585 250.261H133.584L125.373 242.394Z" fill="#D18370"/>
<path d="M140.376 231.289C140.584 232.497 141.947 233.113 142.992 232.471L150.724 227.72C151.607 227.177 151.629 225.901 150.764 225.329C150.111 224.896 149.278 224.838 148.571 225.174L141.207 228.956C140.534 229.303 140.162 230.046 140.291 230.793L140.376 231.289Z" fill="#D18370"/>
<path d="M143.981 233.905C143.85 235.327 145.398 236.287 146.614 235.54L153.577 231.261C154.46 230.719 154.482 229.442 153.617 228.87C152.964 228.438 152.131 228.379 151.423 228.716L145.031 231.752C144.478 232.015 144.105 232.55 144.049 233.16L143.981 233.905Z" fill="#D18370"/>
<path d="M144.895 238.252C144.764 239.674 146.312 240.634 147.528 239.887L154.491 235.609C155.374 235.066 155.396 233.789 154.531 233.217C153.878 232.785 153.045 232.727 152.338 233.063L145.945 236.099C145.392 236.362 145.019 236.897 144.963 237.506L144.895 238.252Z" fill="#D18370"/>
<path d="M144.657 240.83C144.527 242.252 146.074 243.212 147.29 242.465L152.826 239.063C153.583 238.599 153.601 237.506 152.861 237.016C152.301 236.646 151.588 236.596 150.983 236.884L145.639 239.423C145.087 239.685 144.713 240.219 144.657 240.83Z" fill="#D18370"/>
<path d="M131.609 232.515C130.318 232.9 129.101 231.731 129.433 230.425L131.172 223.601C131.402 222.698 132.49 222.334 133.216 222.918C133.75 223.347 134.033 224.014 133.97 224.697L133.402 230.846C133.337 231.55 132.85 232.145 132.172 232.347L131.609 232.515Z" fill="#D18370"/>
<path d="M141.256 229.825C141.256 229.825 146.432 235.659 146.855 239.677" stroke="#B26354" stroke-width="0.312" stroke-miterlimit="10"/>
<path d="M133.979 231.437C133.979 231.437 135.235 235.057 133.372 239.214" stroke="#B26354" stroke-width="0.312" stroke-miterlimit="10"/>
<path d="M127.78 244.196L128.784 244.591C128.784 244.591 129.848 246.68 130.709 247.506" stroke="#B26354" stroke-width="0.312" stroke-miterlimit="10"/>
<path d="M144.657 240.83C144.657 240.83 138.396 240.864 136.332 243.551" stroke="#B26354" stroke-width="0.312" stroke-miterlimit="10"/>
<path d="M82.0326 206.713L43.596 206.702C37.9294 206.702 42.6327 210.989 42.0376 216.625L37.8601 306.886L100.645 301.709L93.066 216.818C92.5622 211.099 87.7736 206.713 82.0326 206.713Z" fill="#2BABC8"/>
<path d="M94.8673 239.249L93.5608 222.971" stroke="#3A1066" stroke-width="0.312" stroke-miterlimit="10" stroke-linecap="round" stroke-linejoin="round"/>
<path d="M27.0224 219.429C26.9131 219.36 26.7665 219.406 26.7184 219.526L10.6034 262.596C9.69322 267.801 10.5572 266.483 14.3534 269.634C18.9755 273.472 25.747 272.52 29.0073 267.58C29.0114 267.573 29.0164 267.566 29.0204 267.559L47.62 232.751C47.6712 232.656 47.6401 232.536 47.5478 232.478L27.0224 219.429Z" fill="#D18370"/>
<path d="M31.0937 212.304L18.6043 229.942L46.4691 243.075L54.3776 226.476C57.0529 221.102 55.9109 214.61 51.5618 210.472C45.583 204.782 35.9666 205.643 31.0937 212.304Z" fill="#2BABC8"/>
<path d="M46.4692 243.074L53.2759 228.79" stroke="#3A1066" stroke-width="0.312" stroke-miterlimit="10" stroke-linecap="round" stroke-linejoin="round"/>
<path d="M26.4716 258.996C41.8209 270.868 65.4019 295.082 65.4019 295.082L60.84 306.074L14.9546 276.585C9.09221 273.369 7.66524 265.579 12.0073 260.493C15.659 256.215 22.0221 255.554 26.4716 258.996Z" fill="#D18370"/>
<path d="M61.5144 293.972L73.2973 290.341L82.685 299.62L79.0393 307.055H79.0383L74.2255 311.333L59.404 305.11L57.9209 304.113L61.5144 293.972Z" fill="#D18370"/>
<path d="M79.3274 299.549C78.4734 300.429 78.7794 301.893 79.9134 302.359L88.3086 305.807C89.2679 306.201 90.3115 305.466 90.2644 304.43C90.2282 303.647 89.7857 302.94 89.0963 302.567L81.7016 298.847C81.0253 298.507 80.2054 298.645 79.6776 299.189L79.3274 299.549Z" fill="#D18370"/>
<path d="M79.3373 304.003C78.1121 304.735 78.2475 306.552 79.5681 307.095L87.1284 310.199C88.0877 310.593 89.1314 309.858 89.0842 308.823C89.0481 308.04 88.6055 307.332 87.9161 306.959L81.6955 303.584C81.1576 303.292 80.5054 303.306 79.9796 303.62L79.3373 304.003Z" fill="#D18370"/>
<path d="M76.3639 307.303C75.1387 308.036 75.2742 309.852 76.5947 310.395L84.155 313.5C85.1143 313.894 86.158 313.159 86.1108 312.123C86.0747 311.34 85.6322 310.633 84.9428 310.259L78.7221 306.885C78.1843 306.593 77.532 306.607 77.0062 306.921L76.3639 307.303Z" fill="#D18370"/>
<path d="M74.1414 308.63C72.9161 309.363 73.0516 311.179 74.3722 311.722L80.3831 314.19C81.2039 314.528 82.0981 313.898 82.0569 313.011C82.0258 312.341 81.6465 311.736 81.0574 311.416L75.8574 308.595C75.3195 308.303 74.6672 308.316 74.1414 308.63Z" fill="#D18370"/>
<path d="M73.171 293.188C72.0993 292.372 72.3271 290.7 73.5764 290.2L80.1151 287.583C80.9801 287.237 81.9144 287.901 81.8712 288.832C81.8391 289.515 81.4668 290.138 80.8788 290.489L75.5753 293.654C74.9672 294.016 74.2006 293.973 73.6376 293.544L73.171 293.188Z" fill="#D18370"/>
<path d="M74.9781 309.034L81.4828 312.26" stroke="#B26354" stroke-width="0.312" stroke-miterlimit="10"/>
<path d="M77.6785 305.915C77.6785 305.915 84.138 308.97 85.0301 309.336" stroke="#B26354" stroke-width="0.312" stroke-miterlimit="10"/>
<path d="M76.2446 293.255L74.6551 294.305" stroke="#B26354" stroke-width="0.312" stroke-miterlimit="10"/>
<path d="M62.882 294.305L61.3226 297.799" stroke="#B26354" stroke-width="0.312" stroke-miterlimit="10"/>
<path d="M84.6103 156.334C84.6103 156.334 97.8533 161.169 86.9414 175.373L74.2543 158.993L84.6103 156.334Z" fill="#141513"/>
<path d="M79.0572 179.544C78.7943 182.758 81.1043 185.582 84.2161 185.85C87.329 186.119 90.0645 183.731 90.3274 180.517C90.5903 177.303 88.2803 174.48 85.1685 174.211C82.0566 173.942 79.3201 176.33 79.0572 179.544Z" fill="#B76F4F"/>
<path d="M76.119 190.895C76.7271 191.188 77.1104 191.807 77.1004 192.482L76.8906 206.591C76.8234 211.731 73.7226 213.845 68.8236 213.721C64.6411 213.615 60.0782 211.516 60.3301 206.989L61.5945 186.55C61.6708 185.322 62.9673 184.562 64.0771 185.095L76.119 190.895Z" fill="#D18370"/>
<path d="M76.9047 205.607L61.1961 192.981C60.9713 188.601 77.1686 189.876 77.1686 189.876L76.9047 205.607Z" fill="#B76F4F"/>
<path d="M71.5731 197.261C79.5388 197.399 86.21 191.017 86.5441 184.304L87.1683 170.256C87.5878 161.842 81.4685 154.607 73.3383 153.905C65.0153 153.187 56.2398 159.446 55.5364 168.04L55.1832 178.993C54.853 188.854 62.053 196.439 71.5731 197.261Z" fill="#D18370"/>
<path d="M69.502 170.966C69.502 170.966 73.8431 170.391 73.9304 171.65C73.9304 171.65 73.9665 172.503 71.3584 172.791C68.7504 173.078 66.7063 173.097 66.4313 172.306C66.1554 171.515 68.0961 171.038 69.502 170.966Z" fill="#141513"/>
<path d="M82.7881 171.423C82.7881 171.423 86.2772 171.769 86.0805 173.015C86.0805 173.015 86.1919 173.871 83.9 173.601C81.2939 173.294 80.3105 172.972 80.2192 172.14C80.1278 171.31 81.4023 171.179 82.7881 171.423Z" fill="#141513"/>
<path d="M79.6904 177.304C79.6603 178.029 80.2233 178.641 80.9478 178.671C81.6723 178.701 82.2845 178.138 82.3136 177.414C82.3437 176.689 81.7807 176.077 81.0562 176.048C80.3316 176.017 79.7205 176.58 79.6904 177.304Z" fill="#141513"/>
<path d="M67.8783 177.179C67.7859 177.899 68.2947 178.556 69.0142 178.648C69.7337 178.74 70.391 178.232 70.4833 177.513C70.5756 176.794 70.0669 176.135 69.3484 176.044C68.6289 175.951 67.9706 176.46 67.8783 177.179Z" fill="#141513"/>
<path d="M78.8124 179.835L79.9794 182.253C80.1089 182.485 80.0467 182.778 79.8339 182.938L78.6719 183.478" stroke="#231E24" stroke-width="0.556733" stroke-miterlimit="10" stroke-linecap="round" stroke-linejoin="round"/>
<path d="M58.9944 178.293C58.9944 178.293 57.2674 166.583 63.0083 161.078C63.0083 161.078 85.6189 169.598 88.6966 160.457C92.4847 149.205 82.2131 149.971 72.7923 152.398C65.8883 154.176 62.9561 155.242 60.4976 156.333C53.8976 159.264 50.9705 164.161 53.9177 173.322L58.9944 178.293Z" fill="#141513"/>
<path d="M47.8657 178.603C47.6048 181.786 49.8928 184.582 52.9745 184.848C56.0562 185.113 58.7666 182.749 59.0265 179.566C59.2874 176.383 56.9994 173.587 53.9177 173.321C50.836 173.056 48.1256 175.42 47.8657 178.603Z" fill="#D18370"/>
<path d="M55.2273 180.622C55.2273 180.622 55.2504 177.169 51.966 177.112" stroke="#231E24" stroke-width="0.553301" stroke-miterlimit="10" stroke-linecap="round" stroke-linejoin="round"/>
<path d="M75.9182 205.689C76.5444 205.637 77.1535 205.924 77.5007 206.448C79.034 208.763 82.481 215.103 74.8023 215.83C69.2229 216.358 61.6958 215.325 60.4946 208.873C60.3079 207.872 61.0485 206.928 62.063 206.844L75.9182 205.689Z" fill="#D18370"/>
<path d="M58.2489 178.659C58.2489 178.659 58.568 187.153 63.9176 190.866C69.2662 194.578 74.3509 192.821 74.8024 192.103L77.8089 191.983C77.8089 191.983 78.8074 193.18 80.4832 192.861C82.16 192.541 85.616 190.266 86.4028 185.595C86.4028 185.595 88.0675 199.247 76.2916 200.205C64.5157 201.163 58.289 192.621 56.9715 188.909C55.4763 184.695 55.8546 184.301 55.8546 184.301L58.2489 178.659Z" fill="#141513"/>
<path d="M77.1685 185.87L69.7056 185.609C69.7056 185.609 70.0518 189.095 73.1917 189.361C76.3316 189.628 77.1796 186.823 77.1685 185.87Z" fill="white"/>
<path d="M52.7708 165.853C52.7708 165.853 56.3553 159.414 65.6596 155.644C74.964 151.874 79.2318 151.326 81.6271 150.904C81.6271 150.904 74.2535 138.666 60.4977 144.946C49.4834 149.974 51.8045 164.725 52.7708 165.853Z" fill="#2BABC8"/>
<path d="M129.196 236.207C129.213 236.179 129.225 236.148 129.244 236.121L161.635 184.897V184.897C162.067 184.153 162.986 183.7 164.288 183.715C166.894 183.745 170.05 185.636 171.337 187.938C171.98 189.089 172.035 190.125 171.603 190.87L143.155 244.454C143.141 244.482 143.122 244.507 143.106 244.534C143.08 244.582 143.059 244.632 143.032 244.679C140.776 248.564 135.831 249.847 131.987 247.543C128.144 245.24 126.856 240.223 129.111 236.338C129.137 236.293 129.168 236.252 129.196 236.207Z" fill="#455A64"/>
<path d="M171.337 187.939C172.624 190.241 171.555 192.082 168.949 192.052C166.343 192.022 163.187 190.131 161.9 187.829C160.613 185.527 161.682 183.685 164.288 183.716C166.894 183.746 170.049 185.636 171.337 187.939Z" fill="#263238"/>
<path d="M139.816 240.022L166.459 191.533C167.294 191.852 168.146 192.038 168.947 192.054C170.244 192.066 171.157 191.629 171.594 190.885L143.154 244.454C143.14 244.482 143.12 244.507 143.105 244.534C143.078 244.582 143.058 244.632 143.03 244.679C140.775 248.564 135.83 249.847 131.986 247.543C134.474 248.279 137.215 244.8 139.816 240.022Z" fill="#37474F"/>
<path d="M174.612 169.149C176.188 169.167 178.096 170.311 178.874 171.703C179.263 172.399 179.296 173.025 179.035 173.475L179.036 173.476L169.634 189.69L169.633 189.689C169.371 190.139 168.816 190.413 168.028 190.404C166.452 190.385 164.544 189.242 163.766 187.85C163.377 187.154 163.344 186.528 163.605 186.078L173.007 169.864C173.269 169.414 173.825 169.14 174.612 169.149Z" fill="#E0E0E0"/>
<path opacity="0.25" d="M173.488 183.044L176.456 177.926C174.678 176.381 172.945 174.686 171.265 172.868L168.219 178.119C169.918 179.874 171.677 181.52 173.488 183.044Z" fill="black"/>
<path d="M147.764 123.161C147.823 146.597 164.349 175.06 184.674 186.725C190.584 190.119 196.163 191.716 201.101 191.704C204.662 191.696 207.888 190.853 210.668 189.235L222.501 182.364C229.146 178.506 233.241 170.265 233.211 158.545C233.153 135.102 216.627 106.645 196.301 94.9751C186.136 89.1458 176.947 88.6139 170.308 92.4655L158.452 99.3538C151.825 103.21 147.735 111.451 147.764 123.161ZM165.44 116.275C165.427 110.718 166.442 106.128 168.343 102.714C172.301 102.768 176.863 104.216 181.557 106.913C190.513 112.057 199.005 121.019 205.472 132.152C211.938 143.285 215.511 155.103 215.536 165.429C215.55 170.992 214.534 175.582 212.628 178.99C208.67 178.936 204.114 177.482 199.419 174.791C190.464 169.648 181.971 160.685 175.505 149.552C169.039 138.419 165.466 126.601 165.44 116.275Z" fill="#F69D39"/>
<path opacity="0.1" d="M215.719 112.491L198.796 122.319C201.19 125.346 203.432 128.641 205.472 132.152C205.87 132.838 206.257 133.528 206.634 134.218L223.521 124.412C221.234 120.228 218.608 116.214 215.719 112.491ZM189.593 112.656C191.344 114.16 193.055 115.806 194.713 117.575L211.708 107.706C210.108 105.94 208.448 104.266 206.736 102.702L189.593 112.656Z" fill="white"/>
<path opacity="0.25" d="M210.715 189.205L222.501 182.363C229.145 178.506 233.241 170.265 233.211 158.544C233.21 158.095 233.192 157.645 233.179 157.19L221.352 164.06C221.365 164.516 221.371 164.965 221.372 165.415C221.403 177.101 217.325 185.335 210.715 189.205Z" fill="black"/>
<path d="M153.602 123.146C153.627 133.472 157.2 145.295 163.666 156.428C170.132 167.562 178.625 176.524 187.58 181.662C192.392 184.422 197.059 185.877 201.087 185.866C206.212 185.854 210.163 183.416 212.627 178.991C208.67 178.936 204.113 177.483 199.419 174.791C190.463 169.648 181.971 160.685 175.504 149.552C169.038 138.419 165.465 126.601 165.44 116.275C165.426 110.718 166.442 106.127 168.343 102.713C168.244 102.708 168.144 102.708 168.051 102.708C158.968 102.732 153.57 110.374 153.602 123.146Z" fill="#F69D39"/>
<path opacity="0.25" d="M153.602 123.146C153.627 133.472 157.2 145.295 163.666 156.428C170.132 167.562 178.625 176.524 187.58 181.662C192.392 184.422 197.059 185.877 201.087 185.866C206.212 185.854 210.163 183.416 212.627 178.991C208.67 178.936 204.113 177.483 199.419 174.791C190.463 169.648 181.971 160.685 175.504 149.552C169.038 138.419 165.465 126.601 165.44 116.275C165.426 110.718 166.442 106.127 168.343 102.713C168.244 102.708 168.144 102.708 168.051 102.708C158.968 102.732 153.57 110.374 153.602 123.146Z" fill="black"/>
<path opacity="0.3" d="M159.11 119.963C159.136 130.289 162.709 142.112 169.175 153.245C175.641 164.378 184.133 173.341 193.089 178.479C197.9 181.24 202.568 182.693 206.595 182.683C207.88 182.68 209.082 182.525 210.213 182.225H210.219C211.133 181.306 211.936 180.224 212.628 178.99C214.534 175.582 215.55 170.992 215.536 165.429C215.511 155.103 211.938 143.286 205.472 132.152C199.005 121.019 190.513 112.057 181.557 106.913C176.863 104.216 172.301 102.768 168.343 102.714C168.244 102.709 168.144 102.709 168.051 102.709C166.761 102.711 165.547 102.866 164.415 103.179C160.98 106.626 159.091 112.392 159.11 119.963Z" fill="white"/>
<path d="M147.764 123.161C147.822 146.599 164.348 175.059 184.675 186.727C205.002 198.395 221.433 188.854 221.375 165.416C221.317 141.978 204.79 113.519 184.463 101.851C164.136 90.1825 147.705 99.7234 147.764 123.161ZM163.666 156.429C157.2 145.296 153.627 133.473 153.602 123.147C153.57 110.374 158.968 102.732 168.051 102.709C168.145 102.709 168.244 102.709 168.343 102.715C172.301 102.769 176.863 104.217 181.557 106.914C190.513 112.057 199.005 121.02 205.472 132.153C211.938 143.286 215.511 155.104 215.536 165.43C215.55 170.993 214.534 175.583 212.628 178.991C210.164 183.416 206.212 185.855 201.087 185.867C197.06 185.877 192.392 184.424 187.581 181.663C178.625 176.525 170.133 167.562 163.666 156.429Z" fill="#F69D39"/>
<g opacity="0.3">
<path d="M147.764 123.161C147.822 146.599 164.348 175.059 184.675 186.727C205.002 198.395 221.433 188.854 221.375 165.416C221.317 141.978 204.79 113.519 184.463 101.851C164.136 90.1825 147.705 99.7234 147.764 123.161ZM163.666 156.429C157.2 145.296 153.627 133.473 153.602 123.147C153.57 110.374 158.968 102.732 168.051 102.709C168.145 102.709 168.244 102.709 168.343 102.715C172.301 102.769 176.863 104.217 181.557 106.914C190.513 112.057 199.005 121.02 205.472 132.153C211.938 143.286 215.511 155.104 215.536 165.43C215.55 170.993 214.534 175.583 212.628 178.991C210.164 183.416 206.212 185.855 201.087 185.867C197.06 185.877 192.392 184.424 187.581 181.663C178.625 176.525 170.133 167.562 163.666 156.429Z" fill="white"/>
</g>
<g opacity="0.3">
<path d="M212.378 132.583C215.739 139.196 218.36 146.198 219.894 153.447C220.633 157.073 221.119 160.759 221.171 164.458C221.251 168.153 220.901 171.864 219.992 175.438C219.061 178.99 217.553 182.455 215.144 185.251C212.767 188.057 209.507 190.099 205.927 190.971C202.347 191.874 198.551 191.692 194.965 190.831C191.351 190.019 187.921 188.513 184.675 186.727C187.886 188.575 191.293 190.151 194.915 191.039C198.52 191.936 202.355 192.144 205.997 191.254C209.639 190.393 212.981 188.333 215.421 185.489C217.894 182.655 219.452 179.143 220.415 175.547C221.314 171.918 221.639 168.171 221.535 164.45C221.457 160.725 220.944 157.024 220.178 153.387C219.393 149.752 218.316 146.184 217.019 142.703C215.682 139.235 214.127 135.856 212.378 132.583Z" fill="white"/>
</g>
<g opacity="0.3">
<path d="M168.051 102.709C166.218 102.704 164.37 103.001 162.662 103.711C160.956 104.417 159.426 105.537 158.186 106.917C156.936 108.296 156.026 109.943 155.306 111.645C154.57 113.35 154.125 115.16 153.791 116.978C153.191 120.631 153.144 124.358 153.506 128.031C153.846 131.711 154.584 135.343 155.587 138.896C156.578 142.452 157.877 145.92 159.407 149.278C160.935 152.637 162.669 155.903 164.621 159.035C168.52 165.296 173.198 171.113 178.759 176.012C181.554 178.438 184.569 180.63 187.818 182.433C191.066 184.221 194.575 185.65 198.306 186.19C200.164 186.463 202.082 186.469 203.956 186.112C205.821 185.734 207.631 184.972 209.152 183.81C209.919 183.241 210.617 182.582 211.231 181.858C211.849 181.137 212.408 180.364 212.869 179.541C213.815 177.907 214.484 176.135 214.945 174.328C215.87 170.706 216.043 166.961 215.847 163.277C215.623 159.588 215.037 155.929 214.107 152.364C213.179 148.798 211.967 145.314 210.504 141.942C209.053 138.565 207.363 135.295 205.472 132.152C209.015 138.568 211.896 145.378 213.551 152.501C214.413 156.05 214.945 159.676 215.11 163.313C215.252 166.944 215.022 170.614 214.078 174.098C213.608 175.836 212.941 177.519 212.026 179.047C211.122 180.577 209.968 181.963 208.549 183.002C207.144 184.064 205.486 184.752 203.759 185.095C202.024 185.417 200.226 185.408 198.458 185.139C194.913 184.61 191.515 183.216 188.361 181.459C185.202 179.685 182.261 177.523 179.527 175.135C174.047 170.354 169.401 164.64 165.522 158.474C161.655 152.295 158.549 145.626 156.446 138.646C155.406 135.155 154.625 131.58 154.238 127.957C153.825 124.34 153.828 120.667 154.353 117.071C154.638 115.28 155.032 113.492 155.714 111.809C156.378 110.128 157.23 108.496 158.419 107.12C159.598 105.743 161.07 104.611 162.733 103.872C164.391 103.119 166.217 102.762 168.051 102.709Z" fill="white"/>
</g>
</svg>
