<svg width="80" height="84" viewBox="0 0 80 84" fill="none" xmlns="http://www.w3.org/2000/svg">
<g filter="url(#filter0_d_55488_1552)">
<path d="M73.3328 27.2078V27.4496C73.3328 30.3187 73.3328 31.7533 72.6422 32.927C71.9515 34.1007 70.6975 34.7974 68.1895 36.1907L65.5452 37.66C67.3672 31.4995 67.9752 24.8805 68.2002 19.2199C68.2095 18.9772 68.2205 18.7315 68.2315 18.4833L68.2392 18.3093C70.4102 19.0632 71.6288 19.6253 72.3892 20.6803C73.3332 21.9898 73.3332 23.7291 73.3328 27.2078Z" fill="#EABE6C"/>
<path d="M6.66663 27.2078V27.4495C6.66673 30.3187 6.66676 31.7532 7.35739 32.927C8.04803 34.1006 9.30206 34.7973 11.8101 36.1906L14.456 37.6606C12.6335 31.5 12.0255 24.8807 11.8008 19.2199C11.7912 18.9772 11.7803 18.7315 11.7693 18.4832L11.7616 18.3088C9.58999 19.063 8.37083 19.625 7.61029 20.6802C6.66649 21.9897 6.66653 23.7291 6.66663 27.2078Z" fill="#EABE6C"/>
<path fill-rule="evenodd" clip-rule="evenodd" d="M54.5903 7.82243C50.8436 7.19026 45.9456 6.66663 40.0006 6.66663C34.0553 6.66663 29.1574 7.19026 25.4106 7.82243C21.6148 8.46286 19.7169 8.78309 18.1312 10.7361C16.5455 12.6891 16.6293 14.7999 16.7969 19.0215C17.3723 33.5146 20.4998 51.617 37.5 53.219V65H32.7326C31.1437 65 29.7757 66.1216 29.464 67.6796L28.8333 70.8333H20C18.6193 70.8333 17.5 71.9526 17.5 73.3333C17.5 74.714 18.6193 75.8333 20 75.8333H60C61.3806 75.8333 62.5 74.714 62.5 73.3333C62.5 71.9526 61.3806 70.8333 60 70.8333H51.1666L50.536 67.6796C50.2243 66.1216 48.8563 65 47.2673 65H42.5V53.219C59.501 51.6176 62.6286 33.515 63.204 19.0215C63.3716 14.7999 63.4556 12.6891 61.8696 10.7361C60.284 8.78309 58.3863 8.46286 54.5903 7.82243Z" fill="#EABE6C"/>
</g>
<defs>
<filter id="filter0_d_55488_1552" x="-4" y="0" width="88" height="88" filterUnits="userSpaceOnUse" color-interpolation-filters="sRGB">
<feFlood flood-opacity="0" result="BackgroundImageFix"/>
<feColorMatrix in="SourceAlpha" type="matrix" values="0 0 0 0 0 0 0 0 0 0 0 0 0 0 0 0 0 0 127 0" result="hardAlpha"/>
<feOffset dy="4"/>
<feGaussianBlur stdDeviation="2"/>
<feComposite in2="hardAlpha" operator="out"/>
<feColorMatrix type="matrix" values="0 0 0 0 0 0 0 0 0 0 0 0 0 0 0 0 0 0 0.25 0"/>
<feBlend mode="normal" in2="BackgroundImageFix" result="effect1_dropShadow_55488_1552"/>
<feBlend mode="normal" in="SourceGraphic" in2="effect1_dropShadow_55488_1552" result="shape"/>
</filter>
</defs>
</svg>
