<svg width="123" height="145" viewBox="0 0 123 145" fill="none" xmlns="http://www.w3.org/2000/svg">
<path d="M70.9461 136.576C65.8836 139.138 59.8065 141.22 52.6155 142.722C38.2016 145.725 22.341 144.858 9.0806 140.051L16.6432 99.6663L61.7575 98.6136L70.9461 136.576Z" fill="#2BABC8"/>
<path d="M71.7971 53.164C71.7971 53.164 94.9403 67.5911 97.8446 69.7678C100.847 72.0182 102.474 75.592 100.667 78.8811C99.0415 81.8413 95.4507 83.1073 92.3276 81.8203L64.6541 67.2714L71.7971 53.164Z" fill="#FDDFB8"/>
<path d="M52.6186 49.6057C52.6186 49.6057 61.7404 45.7038 75.6726 55.5859L69.7056 73.2175L59.0044 67.0621L52.6186 49.6057Z" fill="#F69D39"/>
<path d="M100.667 78.8804L115.249 54.1562L105.073 47.7464L87.9344 71.3457L100.667 78.8804Z" fill="#FDDFB8"/>
<path d="M19.1627 69.7672C19.1627 69.7672 6.63379 103.726 -0.966837 135.343C-5.67243 132.541 -9.7745 129.086 -13 124.984C-9.80321 107.448 -2.8309 81.7049 3.08173 63.3139L19.1627 69.7672Z" fill="#FDDFB8"/>
<path d="M9.86853 48.9512C9.86853 48.9512 4.43529 52.4366 -1.07008 71.2823L14.1009 77.8721L20.4131 65.3324L9.86853 48.9512Z" fill="#F69D39"/>
<path d="M57.2744 48.4562L67.7848 52.4295L61.783 99.7383L15.9666 103.283L9.86859 48.9511L22.3238 46.0599L57.2744 48.4562Z" fill="#F69D39"/>
<path d="M43.4469 42.9422L57.2735 48.4561C57.2735 48.4561 55.6662 53.8986 39.4395 53.8994C25.3033 53.8994 22.3229 46.0606 22.3229 46.0606L35.7532 42.943H43.4469V42.9422Z" fill="#D6906E"/>
<path d="M15.031 76.1187L12.2236 63.4114" stroke="#844421" stroke-width="0.464157" stroke-miterlimit="10" stroke-linecap="round" stroke-linejoin="round"/>
<path d="M21.5117 24.6724C21.5117 24.6724 22.7846 29.1159 21.5117 31.2445C20.2387 33.3731 21.2526 34.8206 21.5117 35.7569C21.7708 36.6932 18.7058 37.1191 15.8116 41.1203C12.9165 45.1215 13.3952 48.1322 13.3952 48.1322C13.3952 48.1322 23.0841 57.5519 39.6685 56.1897C56.2528 54.8275 59.9453 49.4657 59.9453 49.4657C59.9453 49.4657 60.1695 43.4522 56.1675 40.4982C52.1663 37.5442 54.2941 37.7994 53.1026 34.9897C51.9111 32.18 49.677 33.6772 50.3208 30.3919C50.9647 27.1067 50.8041 24.6717 50.8041 24.6717L21.5117 24.6724Z" fill="#38332F"/>
<path d="M19.7344 18.2011C21.4457 28.2298 27.2412 36.6845 36.5833 36.7179C45.9247 36.7512 52.3765 28.4377 53.5641 18.3222C54.9116 6.84519 46.0566 0.0334613 36.7144 0.000104747C27.3723 -0.0332518 17.9766 7.90406 19.7344 18.2011Z" fill="#38332F"/>
<path d="M22.7023 18.1879C22.6876 21.8571 23.0429 28.7588 25.405 33.3232C27.6228 37.6092 31.5899 39.7959 36.4344 39.8161C41.2075 39.8355 45.5903 36.6007 47.5157 32.9346C50.4263 27.3927 50.3208 18.3547 50.3208 18.3547C50.3208 18.3547 50.3673 5.24791 36.709 5.19904C22.3215 5.14706 22.7023 18.1879 22.7023 18.1879Z" fill="#D18370"/>
<path d="M35.3187 25.4618L35.3149 27.3135C35.3141 27.7805 35.7237 28.1319 36.1627 28.0411L37.1394 27.8379" stroke="#1C0E0E" stroke-width="0.838403" stroke-miterlimit="10" stroke-linecap="round" stroke-linejoin="round"/>
<path d="M31.2825 22.8136C31.2802 23.5195 30.7062 24.0897 29.9995 24.0873C29.2936 24.085 28.7234 23.511 28.7257 22.8043C28.728 22.0984 29.3029 21.5282 30.0088 21.5305C30.7147 21.5336 31.2848 22.1077 31.2825 22.8136Z" fill="#38332F"/>
<path d="M43.3019 22.8564C43.2996 23.5623 42.7247 24.1324 42.0188 24.1301C41.3129 24.1278 40.7427 23.5529 40.745 22.847C40.7474 22.1411 41.3222 21.571 42.0281 21.5733C42.734 21.5764 43.3042 22.1504 43.3019 22.8564Z" fill="#38332F"/>
<path d="M39.7234 17.0374C39.7234 17.0374 39.2339 18.3298 41.1717 18.5935C42.6432 18.7937 43.578 18.9015 44.4049 19.1979C44.8742 19.3662 45.4157 19.2289 45.6864 18.8759C45.9052 18.5912 45.9052 18.2227 45.6756 17.938C45.2101 17.3609 44.2195 16.4642 42.4322 16.2004C40.136 15.8606 39.7234 17.0374 39.7234 17.0374Z" fill="#38332F"/>
<path d="M32.2927 17.0048C32.2927 17.0048 32.7759 18.2994 30.8366 18.5531C29.3643 18.7455 28.4295 18.8487 27.6003 19.1403C27.1294 19.3064 26.5887 19.1659 26.3203 18.8122C26.1031 18.526 26.1047 18.1583 26.3366 17.8743C26.8059 17.2995 27.8004 16.409 29.59 16.1538C31.887 15.8264 32.2927 17.0048 32.2927 17.0048Z" fill="#38332F"/>
<path d="M33.7084 30.6577L40.1811 29.889C40.1811 29.889 40.1694 33.1463 37.7903 33.8413C35.4111 34.5372 33.9659 32.5071 33.7084 30.6577Z" fill="white"/>
<path d="M22.1376 18.6719C22.1376 18.6719 26.4801 8.9876 36.2272 8.51208C45.9743 8.03655 51.1166 19.2102 51.1166 19.2102C51.1166 19.2102 49.161 3.47681 35.7687 3.87321C22.3749 4.26806 22.2958 17.5626 22.1376 18.6719Z" fill="#38332F"/>
<path d="M106.64 48.7332L106.783 44.2285L112.593 39.8844L118.826 47.7844L114.175 53.7188L106.64 48.7332Z" fill="#D18370"/>
<path d="M106.783 44.2284V37.0412C106.783 36.4431 107.304 35.9792 107.898 36.0467C108.333 36.0964 108.685 36.4229 108.768 36.8535L109.853 42.5411C109.853 42.5411 108.185 44.2284 106.783 44.2284Z" fill="#D18370"/>
<path d="M111.266 40.7927L116.582 35.8994C116.959 35.5527 117.543 35.5697 117.898 35.9374C118.223 36.2733 118.253 36.7969 117.968 37.167L113.097 43.5008L111.266 40.7927Z" fill="#D18370"/>
<path d="M113.669 41.9952L118.986 37.1019C119.363 36.7552 119.947 36.7722 120.303 37.1399C120.628 37.4758 120.657 37.9994 120.373 38.3695L115.502 44.7033L113.669 41.9952Z" fill="#D18370"/>
<path d="M115.377 44.2728L120.694 39.3795C121.071 39.0327 121.655 39.0498 122.011 39.4175C122.336 39.7534 122.365 40.277 122.08 40.647L117.209 46.9809L115.377 44.2728Z" fill="#D18370"/>
<path d="M116.042 46.7496L120.905 42.2736C121.249 41.9564 121.783 41.9727 122.109 42.3085C122.406 42.6157 122.433 43.0944 122.172 43.4334L117.717 49.2265L116.042 46.7496Z" fill="#D18370"/>
</svg>
